<svg width="16" height="16" viewBox="0 0 16 16" fill="none" xmlns="http://www.w3.org/2000/svg">
<path d="M14.7891 7.8906L8.75155 1.85623L8.34687 1.45154C8.25466 1.35994 8.12996 1.30853 7.99999 1.30853C7.87002 1.30853 7.74532 1.35994 7.65312 1.45154L1.21093 7.8906C1.11645 7.98472 1.04178 8.09681 0.991323 8.22025C0.940871 8.3437 0.91566 8.476 0.917179 8.60935C0.923429 9.15935 1.38124 9.59842 1.93124 9.59842H2.5953V14.6875H13.4047V9.59842H14.0828C14.35 9.59842 14.6016 9.49373 14.7906 9.30467C14.8837 9.21187 14.9575 9.10153 15.0076 8.98003C15.0578 8.85854 15.0833 8.72829 15.0828 8.59685C15.0828 8.33123 14.9781 8.07967 14.7891 7.8906ZM8.87499 13.5625H7.12499V10.375H8.87499V13.5625ZM12.2797 8.47342V13.5625H9.87499V9.99998C9.87499 9.65467 9.5953 9.37498 9.24999 9.37498H6.74999C6.40468 9.37498 6.12499 9.65467 6.12499 9.99998V13.5625H3.7203V8.47342H2.2203L8.00155 2.69685L8.36249 3.05779L13.7812 8.47342H12.2797Z" fill="black"/>
</svg>
