<svg width="16" height="16" viewBox="0 0 16 16" fill="none" xmlns="http://www.w3.org/2000/svg">
<path d="M14.4502 9.77659L13.4268 8.90159C13.4752 8.60471 13.5002 8.30159 13.5002 7.99846C13.5002 7.69534 13.4752 7.39221 13.4268 7.09534L14.4502 6.22034C14.5274 6.15425 14.5826 6.06624 14.6086 5.96799C14.6346 5.86975 14.63 5.76592 14.5955 5.67034L14.5814 5.62971C14.2997 4.84225 13.8778 4.11227 13.3361 3.47502L13.308 3.44221C13.2423 3.36495 13.1547 3.30941 13.0568 3.28291C12.9589 3.25641 12.8553 3.2602 12.7596 3.29377L11.4893 3.74534C11.0205 3.36096 10.4971 3.05784 9.93145 2.84534L9.68614 1.51721C9.66763 1.41728 9.61915 1.32534 9.54715 1.25361C9.47514 1.18189 9.38302 1.13377 9.28301 1.11565L9.24082 1.10784C8.42676 0.960962 7.57051 0.960962 6.75645 1.10784L6.71426 1.11565C6.61426 1.13377 6.52213 1.18189 6.45013 1.25361C6.37812 1.32534 6.32964 1.41728 6.31114 1.51721L6.06426 2.85159C5.50315 3.06413 4.98062 3.3671 4.51739 3.74846L3.2377 3.29377C3.14202 3.25993 3.03831 3.25601 2.94035 3.28252C2.84239 3.30904 2.75481 3.36473 2.68926 3.44221L2.66114 3.47502C2.12011 4.11272 1.69829 4.84258 1.41582 5.62971L1.40176 5.67034C1.33145 5.86565 1.38926 6.0844 1.54707 6.22034L2.58301 7.10471C2.53457 7.39846 2.51114 7.69846 2.51114 7.9969C2.51114 8.2969 2.53457 8.5969 2.58301 8.88909L1.54707 9.77346C1.46988 9.83955 1.41463 9.92756 1.38867 10.0258C1.36272 10.1241 1.36728 10.2279 1.40176 10.3235L1.41582 10.3641C1.69864 11.1516 2.11739 11.8781 2.66114 12.5188L2.68926 12.5516C2.75497 12.6288 2.84255 12.6844 2.94045 12.7109C3.03836 12.7374 3.14199 12.7336 3.2377 12.7L4.51739 12.2453C4.98301 12.6281 5.50332 12.9313 6.06426 13.1422L6.31114 14.4766C6.32964 14.5765 6.37812 14.6685 6.45013 14.7402C6.52213 14.8119 6.61426 14.86 6.71426 14.8781L6.75645 14.886C7.57799 15.0336 8.41928 15.0336 9.24082 14.886L9.28301 14.8781C9.38302 14.86 9.47514 14.8119 9.54715 14.7402C9.61915 14.6685 9.66763 14.5765 9.68614 14.4766L9.93145 13.1485C10.4968 12.9365 11.0232 12.6324 11.4893 12.2485L12.7596 12.7C12.8553 12.7339 12.959 12.7378 13.0569 12.7113C13.1549 12.6848 13.2425 12.6291 13.308 12.5516L13.3361 12.5188C13.8799 11.8766 14.2986 11.1516 14.5814 10.3641L14.5955 10.3235C14.6658 10.1313 14.608 9.91253 14.4502 9.77659ZM12.3174 7.27971C12.3564 7.51565 12.3768 7.75784 12.3768 8.00002C12.3768 8.24221 12.3564 8.4844 12.3174 8.72034L12.2143 9.3469L13.3814 10.3453C13.2045 10.753 12.9812 11.1389 12.7158 11.4953L11.2658 10.9813L10.7752 11.3844C10.4018 11.6906 9.98614 11.9313 9.53614 12.1L8.94082 12.3235L8.66114 13.8391C8.21984 13.8891 7.77431 13.8891 7.33301 13.8391L7.05332 12.3203L6.4627 12.0938C6.01739 11.925 5.60332 11.6844 5.23301 11.3797L4.74239 10.975L3.28301 11.4938C3.01739 11.136 2.79551 10.75 2.61739 10.3438L3.79707 9.33596L3.69551 8.71096C3.65801 8.47815 3.6377 8.23752 3.6377 8.00002C3.6377 7.76096 3.65645 7.5219 3.69551 7.28909L3.79707 6.66409L2.61739 5.65627C2.79395 5.24846 3.01739 4.86409 3.28301 4.50627L4.74239 5.02502L5.23301 4.62034C5.60332 4.31565 6.01739 4.07502 6.4627 3.90627L7.05489 3.68284L7.33457 2.16409C7.77364 2.11409 8.22207 2.11409 8.6627 2.16409L8.94239 3.67971L9.5377 3.90315C9.98614 4.0719 10.4033 4.31252 10.7768 4.61877L11.2674 5.0219L12.7174 4.50784C12.983 4.86565 13.2049 5.25159 13.383 5.65784L12.2158 6.65627L12.3174 7.27971ZM8.0002 5.09377C6.48145 5.09377 5.2502 6.32502 5.2502 7.84377C5.2502 9.36252 6.48145 10.5938 8.0002 10.5938C9.51895 10.5938 10.7502 9.36252 10.7502 7.84377C10.7502 6.32502 9.51895 5.09377 8.0002 5.09377ZM9.2377 9.08127C9.07539 9.24405 8.8825 9.37313 8.67012 9.46108C8.45774 9.54904 8.23007 9.59413 8.0002 9.59377C7.53301 9.59377 7.09395 9.41096 6.7627 9.08127C6.59992 8.91897 6.47084 8.72607 6.38289 8.5137C6.29494 8.30132 6.24984 8.07364 6.2502 7.84377C6.2502 7.37659 6.43301 6.93752 6.7627 6.60627C7.09395 6.27502 7.53301 6.09377 8.0002 6.09377C8.46739 6.09377 8.90645 6.27502 9.2377 6.60627C9.40047 6.76858 9.52955 6.96148 9.61751 7.17385C9.70546 7.38623 9.75056 7.6139 9.7502 7.84377C9.7502 8.31096 9.56739 8.75002 9.2377 9.08127Z" fill="black"/>
</svg>
