<svg width="16" height="16" viewBox="0 0 16 16" fill="none" xmlns="http://www.w3.org/2000/svg">
<path fill-rule="evenodd" clip-rule="evenodd" d="M7.64833 1.74466C8.12736 1.71666 8.36694 2.31404 8.0013 2.6248C7.15361 3.34524 6.65625 4.39724 6.65625 5.53126C6.65625 7.63684 8.36317 9.34376 10.4688 9.34376C11.6028 9.34376 12.6548 8.84638 13.3752 7.9987C13.6857 7.63343 14.2825 7.8721 14.2554 8.35073C14.0688 11.6535 11.3303 14.25 8.00781 14.25C4.55172 14.25 1.75 11.4483 1.75 7.9922C1.75 4.68923 4.31698 1.96057 7.59684 1.74768L7.60006 1.74748L7.64833 1.74466ZM6.38047 2.99076L6.31622 3.01204C4.23594 3.71787 2.75 5.68895 2.75 7.9922C2.75 10.896 5.104 13.25 8.00781 13.25C10.3247 13.25 12.3037 11.747 12.9993 9.64985L13.009 9.61963L13.0073 9.62074C12.2701 10.079 11.4116 10.3357 10.5116 10.3436L10.4688 10.3438C7.81087 10.3438 5.65625 8.18913 5.65625 5.53126C5.65625 4.61571 5.91369 3.74157 6.37927 2.99271L6.38047 2.99076Z" fill="black"/>
</svg>
