<svg width="16" height="16" viewBox="0 0 16 16" fill="none" xmlns="http://www.w3.org/2000/svg">
<path d="M10.5985 10.0375C10.9766 9.83438 11.4094 9.71875 11.8704 9.71875H11.8719C11.9188 9.71875 11.9407 9.6625 11.9063 9.63125C11.4269 9.20106 10.8794 8.85361 10.286 8.60312C10.2797 8.6 10.2735 8.59844 10.2672 8.59531C11.2375 7.89062 11.8688 6.74531 11.8688 5.45312C11.8688 3.3125 10.1375 1.57812 8.0016 1.57812C5.86566 1.57812 4.13598 3.3125 4.13598 5.45312C4.13598 6.74531 4.76723 7.89062 5.7391 8.59531C5.73285 8.59844 5.7266 8.6 5.72035 8.60312C5.02191 8.89844 4.39535 9.32188 3.85629 9.8625C3.32034 10.3975 2.89365 11.0317 2.60004 11.7297C2.31115 12.4132 2.15524 13.1456 2.14066 13.8875C2.14025 13.9042 2.14317 13.9208 2.14927 13.9363C2.15536 13.9518 2.1645 13.966 2.17615 13.9779C2.1878 13.9899 2.20172 13.9993 2.2171 14.0058C2.23247 14.0123 2.24898 14.0156 2.26566 14.0156H3.2016C3.26879 14.0156 3.32504 13.9609 3.3266 13.8938C3.35785 12.6875 3.84066 11.5578 4.69535 10.7016C5.57816 9.81563 6.75316 9.32812 8.00316 9.32812C8.8891 9.32812 9.7391 9.57344 10.4719 10.0328C10.4907 10.0446 10.5123 10.0513 10.5346 10.0521C10.5568 10.0529 10.5788 10.0479 10.5985 10.0375ZM8.00316 8.14062C7.28754 8.14062 6.6141 7.86094 6.10629 7.35313C5.85644 7.10392 5.65836 6.80774 5.52348 6.48165C5.38859 6.15557 5.31956 5.80601 5.32035 5.45312C5.32035 4.73594 5.60004 4.06094 6.10629 3.55312C6.61254 3.04531 7.28598 2.76562 8.00316 2.76562C8.72035 2.76562 9.39223 3.04531 9.90004 3.55312C10.1499 3.80233 10.348 4.09851 10.4829 4.4246C10.6177 4.75068 10.6868 5.10024 10.686 5.45312C10.686 6.17031 10.4063 6.84531 9.90004 7.35313C9.39223 7.86094 8.71879 8.14062 8.00316 8.14062ZM13.75 11.8594H12.4375V10.5469C12.4375 10.4781 12.3813 10.4219 12.3125 10.4219H11.4375C11.3688 10.4219 11.3125 10.4781 11.3125 10.5469V11.8594H10C9.93129 11.8594 9.87504 11.9156 9.87504 11.9844V12.8594C9.87504 12.9281 9.93129 12.9844 10 12.9844H11.3125V14.2969C11.3125 14.3656 11.3688 14.4219 11.4375 14.4219H12.3125C12.3813 14.4219 12.4375 14.3656 12.4375 14.2969V12.9844H13.75C13.8188 12.9844 13.875 12.9281 13.875 12.8594V11.9844C13.875 11.9156 13.8188 11.8594 13.75 11.8594Z" fill="black"/>
</svg>
