<svg width="16" height="16" viewBox="0 0 16 16" fill="none" xmlns="http://www.w3.org/2000/svg">
<path fill-rule="evenodd" clip-rule="evenodd" d="M8.5625 12.7812V14.75C8.5625 14.8881 8.45058 15 8.3125 15H7.6875C7.54942 15 7.4375 14.8881 7.4375 14.75V12.7812C7.68508 12.8069 7.87258 12.8197 8 12.8197C8.12742 12.8197 8.31492 12.8069 8.5625 12.7812ZM11.7695 10.9741L13.1617 12.3662C13.2593 12.4638 13.2593 12.6221 13.1617 12.7197L12.7197 13.1617C12.6221 13.2593 12.4638 13.2593 12.3662 13.1617L10.9741 11.7695C11.1673 11.6126 11.3089 11.4891 11.399 11.399C11.4891 11.3089 11.6126 11.1672 11.7695 10.974M4.23045 10.974C4.38737 11.1672 4.51087 11.3089 4.60097 11.399C4.69108 11.4891 4.83273 11.6126 5.02594 11.7695L3.63383 13.1617C3.5362 13.2593 3.37789 13.2593 3.28028 13.1617L2.83833 12.7197C2.7407 12.6221 2.7407 12.4638 2.83833 12.3662L4.23045 10.974ZM8 4.34375C10.0193 4.34375 11.6562 5.9807 11.6562 8C11.6562 10.0193 10.0193 11.6562 8 11.6562C5.9807 11.6562 4.34375 10.0193 4.34375 8C4.34375 5.9807 5.9807 4.34375 8 4.34375ZM8 5.46875C6.60203 5.46875 5.46875 6.60203 5.46875 8C5.46875 9.39797 6.60203 10.5312 8 10.5312C9.39797 10.5312 10.5312 9.39797 10.5312 8C10.5312 6.60203 9.39797 5.46875 8 5.46875ZM3.21875 7.4375C3.19308 7.68508 3.18025 7.87258 3.18025 8C3.18025 8.12742 3.19308 8.31492 3.21875 8.5625H1.25C1.11192 8.5625 1 8.45058 1 8.3125V7.6875C1 7.54942 1.11192 7.4375 1.25 7.4375H3.21875ZM14.75 7.4375C14.8881 7.4375 15 7.54942 15 7.6875V8.3125C15 8.45058 14.8881 8.5625 14.75 8.5625H12.7812C12.8069 8.31492 12.8197 8.12742 12.8197 8C12.8197 7.87258 12.8069 7.68508 12.7812 7.4375H14.75ZM12.7197 2.8227L13.1617 3.26466C13.2593 3.36228 13.2593 3.52058 13.1617 3.6182L11.7695 5.01031C11.6126 4.81711 11.4891 4.67545 11.399 4.58534C11.3089 4.49525 11.1672 4.37175 10.974 4.21483L12.3662 2.8227C12.4638 2.72508 12.6221 2.72508 12.7197 2.8227M3.63381 2.8227L5.02592 4.21483C4.83272 4.37175 4.69106 4.49525 4.60095 4.58534C4.51086 4.67545 4.38736 4.81711 4.23044 5.01031L2.83831 3.6182C2.74069 3.52058 2.74069 3.36227 2.83831 3.26466L3.28027 2.8227C3.37789 2.72508 3.53619 2.72508 3.63381 2.8227ZM8.3125 1C8.45058 1 8.5625 1.11192 8.5625 1.25V3.21875C8.31492 3.19308 8.12742 3.18025 8 3.18025C7.87258 3.18025 7.68508 3.19308 7.4375 3.21875V1.25C7.4375 1.11192 7.54942 1 7.6875 1H8.3125Z" fill="black"/>
</svg>
